<svg width="22" height="18" viewBox="0 0 22 18" fill="none" xmlns="http://www.w3.org/2000/svg">
<path d="M14.7303 1.5L15.7647 1.5C16.5455 2.68343 17 4.10114 17 5.625C17 7.14887 16.5455 8.56658 15.7647 9.75L15.6174 9.75C14.8111 9.75 14.0835 10.1958 13.5859 10.8303C12.8127 11.8162 11.8383 12.6366 10.7245 13.2298C10.0023 13.6144 9.37571 14.1857 9.07185 14.9454C8.85924 15.4769 8.75 16.0441 8.75 16.6166V17.25C8.75 17.6642 8.41421 18 8 18C6.75736 18 5.75 16.9926 5.75 15.75C5.75 14.5984 6.00956 13.5074 6.47337 12.5323C6.73896 11.974 6.36638 11.25 5.74809 11.25L2.62227 11.25C1.59564 11.25 0.676699 10.556 0.568009 9.53514C0.523055 9.11291 0.5 8.68415 0.5 8.25C0.500001 5.40238 1.49188 2.78642 3.149 0.728778C3.5366 0.247485 4.13581 -1.62073e-07 4.75377 0L8.76975 1.05326e-06C9.25342 1.18012e-06 9.73393 0.077977 10.1928 0.230926L13.3072 1.26908C13.7661 1.42203 14.2466 1.5 14.7303 1.5Z" fill="#B75D69"/>
<path d="M20.6685 10.0229C21.2052 8.66107 21.5 7.17746 21.5 5.625C21.5 4.40493 21.3179 3.22738 20.9794 2.11805C20.7201 1.26802 19.8958 0.750004 19.0071 0.750004L18.0993 0.750003C17.6538 0.750003 17.3786 1.24827 17.5758 1.6478C18.1675 2.84708 18.5 4.19722 18.5 5.625C18.5 7.33318 18.0241 8.93021 17.1977 10.2907C16.9527 10.6941 17.226 11.25 17.6979 11.25H18.7506C19.5827 11.25 20.3635 10.797 20.6685 10.0229Z" fill="#B75D69"/>
</svg>
